<svg width="279" height="62" viewBox="0 0 279 62" fill="none" xmlns="http://www.w3.org/2000/svg">
<path d="M9.42857 14.2755H56.5714C59.072 14.2755 61.4702 15.2782 63.2384 17.063C65.0066 18.8477 66 21.2684 66 23.7925V38.068C66 40.5921 65.0066 43.0128 63.2384 44.7975C61.4702 46.5823 59.072 47.585 56.5714 47.585H9.42857C6.92796 47.585 4.52976 46.5823 2.76156 44.7975C0.993365 43.0128 0 40.5921 0 38.068V23.7925C0 21.2684 0.993365 18.8477 2.76156 17.063C4.52976 15.2782 6.92796 14.2755 9.42857 14.2755ZM9.42857 19.034C8.17827 19.034 6.97917 19.5353 6.09507 20.4277C5.21097 21.3201 4.71429 22.5305 4.71429 23.7925V38.068C4.71429 39.33 5.21097 40.5404 6.09507 41.4328C6.97917 42.3252 8.17827 42.8265 9.42857 42.8265H56.5714C57.8217 42.8265 59.0208 42.3252 59.9049 41.4328C60.789 40.5404 61.2857 39.33 61.2857 38.068V23.7925C61.2857 22.5305 60.789 21.3201 59.9049 20.4277C59.0208 19.5353 57.8217 19.034 56.5714 19.034H9.42857ZM0 2.37925C0 1.74823 0.248341 1.14306 0.690391 0.696866C1.13244 0.25067 1.73199 0 2.35714 0H63.6429C64.268 0 64.8676 0.25067 65.3096 0.696866C65.7517 1.14306 66 1.74823 66 2.37925C66 3.01027 65.7517 3.61544 65.3096 4.06163C64.8676 4.50783 64.268 4.7585 63.6429 4.7585H2.35714C1.73199 4.7585 1.13244 4.50783 0.690391 4.06163C0.248341 3.61544 0 3.01027 0 2.37925ZM0 59.4813C0 58.8502 0.248341 58.2451 0.690391 57.7989C1.13244 57.3527 1.73199 57.102 2.35714 57.102H63.6429C64.268 57.102 64.8676 57.3527 65.3096 57.7989C65.7517 58.2451 66 58.8502 66 59.4813C66 60.1123 65.7517 60.7174 65.3096 61.1636C64.8676 61.6098 64.268 61.8605 63.6429 61.8605H2.35714C1.73199 61.8605 1.13244 61.6098 0.690391 61.1636C0.248341 60.7174 0 60.1123 0 59.4813Z" fill="#FFF9F9"/>
<path d="M83.4034 49V12.6364H87.8068V45.0938H104.71V49H83.4034Z" fill="#FFF9F9"/>
<path d="M122.04 49.5682C119.578 49.5682 117.417 48.9822 115.559 47.8104C113.712 46.6385 112.268 44.9991 111.227 42.892C110.197 40.785 109.682 38.3229 109.682 35.5057C109.682 32.6648 110.197 30.1849 111.227 28.066C112.268 25.9472 113.712 24.3018 115.559 23.13C117.417 21.9581 119.578 21.3722 122.04 21.3722C124.502 21.3722 126.656 21.9581 128.503 23.13C130.361 24.3018 131.805 25.9472 132.835 28.066C133.877 30.1849 134.398 32.6648 134.398 35.5057C134.398 38.3229 133.877 40.785 132.835 42.892C131.805 44.9991 130.361 46.6385 128.503 47.8104C126.656 48.9822 124.502 49.5682 122.04 49.5682ZM122.04 45.804C123.91 45.804 125.449 45.3246 126.656 44.3658C127.864 43.407 128.757 42.1463 129.337 40.5838C129.917 39.0213 130.207 37.3286 130.207 35.5057C130.207 33.6828 129.917 31.9841 129.337 30.4098C128.757 28.8355 127.864 27.563 126.656 26.5923C125.449 25.6217 123.91 25.1364 122.04 25.1364C120.17 25.1364 118.631 25.6217 117.423 26.5923C116.216 27.563 115.322 28.8355 114.742 30.4098C114.162 31.9841 113.872 33.6828 113.872 35.5057C113.872 37.3286 114.162 39.0213 114.742 40.5838C115.322 42.1463 116.216 43.407 117.423 44.3658C118.631 45.3246 120.17 45.804 122.04 45.804Z" fill="#FFF9F9"/>
<path d="M151.803 59.7955C149.779 59.7955 148.039 59.535 146.583 59.0142C145.127 58.5052 143.913 57.8305 142.943 56.9901C141.984 56.1615 141.22 55.2737 140.652 54.3267L143.99 51.983C144.369 52.4801 144.848 53.0483 145.428 53.6875C146.008 54.3385 146.802 54.9008 147.808 55.3743C148.826 55.8596 150.157 56.1023 151.803 56.1023C154.004 56.1023 155.821 55.5696 157.254 54.5043C158.686 53.4389 159.402 51.7699 159.402 49.4972V43.9574H159.047C158.739 44.4545 158.301 45.0701 157.733 45.804C157.177 46.526 156.372 47.1712 155.318 47.7393C154.277 48.2957 152.868 48.5739 151.093 48.5739C148.891 48.5739 146.914 48.053 145.162 47.0114C143.422 45.9697 142.043 44.4545 141.025 42.4659C140.019 40.4773 139.516 38.0625 139.516 35.2216C139.516 32.428 140.007 29.9955 140.99 27.924C141.972 25.8407 143.339 24.2308 145.091 23.0945C146.843 21.9463 148.867 21.3722 151.164 21.3722C152.939 21.3722 154.348 21.6681 155.389 22.2599C156.443 22.84 157.248 23.5028 157.804 24.2486C158.372 24.9825 158.81 25.5862 159.118 26.0597H159.544V21.7273H163.593V49.7812C163.593 52.125 163.06 54.0308 161.994 55.4986C160.941 56.9782 159.521 58.0613 157.733 58.7479C155.958 59.4463 153.981 59.7955 151.803 59.7955ZM151.661 44.8097C153.342 44.8097 154.762 44.425 155.922 43.6555C157.082 42.8861 157.964 41.7794 158.568 40.3352C159.171 38.8911 159.473 37.1629 159.473 35.1506C159.473 33.1856 159.177 31.4515 158.585 29.9482C157.994 28.4448 157.118 27.267 155.958 26.4148C154.798 25.5625 153.365 25.1364 151.661 25.1364C149.885 25.1364 148.405 25.5862 147.222 26.4858C146.05 27.3854 145.168 28.5928 144.576 30.108C143.996 31.6231 143.706 33.304 143.706 35.1506C143.706 37.0445 144.002 38.7195 144.594 40.1754C145.198 41.6196 146.085 42.7559 147.257 43.5845C148.441 44.4013 149.909 44.8097 151.661 44.8097Z" fill="#FFF9F9"/>
<path d="M183.053 49H171.831V12.6364H183.55C187.077 12.6364 190.096 13.3643 192.605 14.8203C195.115 16.2644 197.038 18.3419 198.376 21.0526C199.713 23.7514 200.382 26.983 200.382 30.7472C200.382 34.535 199.708 37.7962 198.358 40.5305C197.009 43.2531 195.044 45.3482 192.463 46.8161C189.883 48.272 186.746 49 183.053 49ZM176.235 45.0938H182.769C185.775 45.0938 188.267 44.5137 190.244 43.3537C192.221 42.1937 193.694 40.5424 194.665 38.3999C195.636 36.2573 196.121 33.7064 196.121 30.7472C196.121 27.8116 195.642 25.2843 194.683 23.1655C193.724 21.0348 192.292 19.4013 190.386 18.2649C188.48 17.1167 186.107 16.5426 183.266 16.5426H176.235V45.0938Z" fill="#FFF9F9"/>
<path d="M207.2 49V21.7273H211.249V25.8466H211.533C212.03 24.4972 212.93 23.4022 214.232 22.5618C215.534 21.7214 217.002 21.3011 218.635 21.3011C218.943 21.3011 219.328 21.3071 219.789 21.3189C220.251 21.3307 220.6 21.3485 220.837 21.3722V25.6335C220.695 25.598 220.369 25.5447 219.86 25.4737C219.363 25.3909 218.836 25.3494 218.28 25.3494C216.954 25.3494 215.771 25.6276 214.729 26.1839C213.699 26.7285 212.882 27.486 212.279 28.4567C211.687 29.4155 211.391 30.5104 211.391 31.7415V49H207.2Z" fill="#FFF9F9"/>
<path d="M236.053 49.5682C233.591 49.5682 231.431 48.9822 229.573 47.8104C227.726 46.6385 226.282 44.9991 225.24 42.892C224.21 40.785 223.695 38.3229 223.695 35.5057C223.695 32.6648 224.21 30.1849 225.24 28.066C226.282 25.9472 227.726 24.3018 229.573 23.13C231.431 21.9581 233.591 21.3722 236.053 21.3722C238.516 21.3722 240.67 21.9581 242.517 23.13C244.375 24.3018 245.819 25.9472 246.849 28.066C247.891 30.1849 248.411 32.6648 248.411 35.5057C248.411 38.3229 247.891 40.785 246.849 42.892C245.819 44.9991 244.375 46.6385 242.517 47.8104C240.67 48.9822 238.516 49.5682 236.053 49.5682ZM236.053 45.804C237.924 45.804 239.463 45.3246 240.67 44.3658C241.877 43.407 242.771 42.1463 243.351 40.5838C243.931 39.0213 244.221 37.3286 244.221 35.5057C244.221 33.6828 243.931 31.9841 243.351 30.4098C242.771 28.8355 241.877 27.563 240.67 26.5923C239.463 25.6217 237.924 25.1364 236.053 25.1364C234.183 25.1364 232.644 25.6217 231.437 26.5923C230.23 27.563 229.336 28.8355 228.756 30.4098C228.176 31.9841 227.886 33.6828 227.886 35.5057C227.886 37.3286 228.176 39.0213 228.756 40.5838C229.336 42.1463 230.23 43.407 231.437 44.3658C232.644 45.3246 234.183 45.804 236.053 45.804Z" fill="#FFF9F9"/>
<path d="M254.808 59.2273V21.7273H258.856V26.0597H259.353C259.661 25.5862 260.087 24.9825 260.632 24.2486C261.188 23.5028 261.981 22.84 263.011 22.2599C264.053 21.6681 265.461 21.3722 267.237 21.3722C269.533 21.3722 271.557 21.9463 273.309 23.0945C275.061 24.2427 276.428 25.8703 277.411 27.9773C278.393 30.0843 278.885 32.5701 278.885 35.4347C278.885 38.3229 278.393 40.8265 277.411 42.9453C276.428 45.0523 275.067 46.6858 273.327 47.8459C271.587 48.9941 269.581 49.5682 267.308 49.5682C265.556 49.5682 264.153 49.2782 263.1 48.6982C262.046 48.1063 261.235 47.4375 260.667 46.6918C260.099 45.9342 259.661 45.3068 259.353 44.8097H258.998V59.2273H254.808ZM258.927 35.3636C258.927 37.4233 259.229 39.2403 259.833 40.8146C260.436 42.3771 261.318 43.6023 262.478 44.4901C263.638 45.366 265.059 45.804 266.74 45.804C268.492 45.804 269.953 45.3423 271.125 44.419C272.309 43.4839 273.197 42.2292 273.789 40.6548C274.392 39.0687 274.694 37.3049 274.694 35.3636C274.694 33.446 274.398 31.7178 273.806 30.179C273.226 28.6283 272.345 27.4032 271.161 26.5035C269.989 25.5921 268.515 25.1364 266.74 25.1364C265.035 25.1364 263.603 25.5684 262.443 26.4325C261.283 27.2848 260.407 28.4803 259.815 30.0192C259.223 31.5462 258.927 33.3277 258.927 35.3636Z" fill="#FFF9F9"/>
</svg>
